<svg xmlns="http://www.w3.org/2000/svg" viewBox="0 0 128 128">
  <defs>
    <linearGradient id="spreadsheetGrad" x1="0%" y1="0%" x2="100%" y2="100%">
      <stop offset="0%" style="stop-color:#2ecc71;stop-opacity:1" />
      <stop offset="100%" style="stop-color:#27ae60;stop-opacity:1" />
    </linearGradient>
  </defs>
  <!-- Background -->
  <rect width="128" height="128" rx="12" fill="url(#spreadsheetGrad)"/>
  <!-- Grid lines -->
  <g stroke="#fff" stroke-width="2" opacity="0.3">
    <line x1="20" y1="50" x2="108" y2="50"/>
    <line x1="20" y1="70" x2="108" y2="70"/>
    <line x1="20" y1="90" x2="108" y2="90"/>
    <line x1="50" y1="30" x2="50" y2="98"/>
    <line x1="80" y1="30" x2="80" y2="98"/>
  </g>
  <!-- Spreadsheet icon -->
  <rect x="20" y="30" width="88" height="68" rx="4" fill="none" stroke="#fff" stroke-width="3"/>
  <!-- Header row -->
  <rect x="20" y="30" width="88" height="20" rx="4" fill="#fff" opacity="0.2"/>
  <!-- Selected cell highlight -->
  <rect x="51" y="51" width="28" height="18" fill="#fff" opacity="0.4"/>
  <!-- Text simulation -->
  <g fill="#fff" opacity="0.8">
    <rect x="24" y="35" width="20" height="4" rx="1"/>
    <rect x="54" y="35" width="16" height="4" rx="1"/>
    <rect x="84" y="35" width="18" height="4" rx="1"/>
    <rect x="24" y="56" width="18" height="3" rx="1"/>
    <rect x="54" y="56" width="22" height="3" rx="1"/>
    <rect x="84" y="56" width="14" height="3" rx="1"/>
    <rect x="24" y="76" width="14" height="3" rx="1"/>
    <rect x="54" y="76" width="18" height="3" rx="1"/>
    <rect x="84" y="76" width="20" height="3" rx="1"/>
  </g>
  <!-- Chart indicator -->
  <g transform="translate(78, 100)">
    <rect x="0" y="-8" width="6" height="8" fill="#fff" rx="1"/>
    <rect x="8" y="-14" width="6" height="14" fill="#fff" rx="1"/>
    <rect x="16" y="-10" width="6" height="10" fill="#fff" rx="1"/>
  </g>
</svg>
