<svg xmlns="http://www.w3.org/2000/svg" viewBox="0 0 100 100">
  <rect width="100" height="100" rx="10" fill="#875A7B"/>
  <g transform="translate(15, 12)">
    <!-- Calendar -->
    <rect x="5" y="10" width="60" height="55" rx="5" fill="white"/>
    <rect x="5" y="10" width="60" height="15" rx="5" fill="#5c3d52"/>
    <!-- Calendar hooks -->
    <rect x="18" y="5" width="4" height="12" rx="2" fill="#333"/>
    <rect x="48" y="5" width="4" height="12" rx="2" fill="#333"/>
    <!-- Calendar grid -->
    <rect x="12" y="32" width="8" height="8" rx="1" fill="#ddd"/>
    <rect x="24" y="32" width="8" height="8" rx="1" fill="#ddd"/>
    <rect x="36" y="32" width="8" height="8" rx="1" fill="#875A7B"/>
    <rect x="48" y="32" width="8" height="8" rx="1" fill="#ddd"/>
    <rect x="12" y="44" width="8" height="8" rx="1" fill="#ddd"/>
    <rect x="24" y="44" width="8" height="8" rx="1" fill="#ddd"/>
    <rect x="36" y="44" width="8" height="8" rx="1" fill="#ddd"/>
    <rect x="48" y="44" width="8" height="8" rx="1" fill="#ddd"/>
    <!-- Clock -->
    <circle cx="55" cy="55" r="18" fill="white" stroke="#875A7B" stroke-width="3"/>
    <circle cx="55" cy="55" r="2" fill="#333"/>
    <line x1="55" y1="55" x2="55" y2="44" stroke="#333" stroke-width="2" stroke-linecap="round"/>
    <line x1="55" y1="55" x2="63" y2="55" stroke="#875A7B" stroke-width="2" stroke-linecap="round"/>
  </g>
</svg>
