<svg xmlns="http://www.w3.org/2000/svg" viewBox="0 0 100 100">
  <rect width="100" height="100" rx="10" fill="#875A7B"/>
  <g transform="translate(15, 15)">
    <!-- Document -->
    <rect x="10" y="5" width="50" height="60" rx="3" fill="white" stroke="#fff" stroke-width="2"/>
    <rect x="18" y="15" width="34" height="3" rx="1" fill="#ddd"/>
    <rect x="18" y="22" width="28" height="3" rx="1" fill="#ddd"/>
    <rect x="18" y="29" width="32" height="3" rx="1" fill="#ddd"/>
    <rect x="18" y="36" width="25" height="3" rx="1" fill="#ddd"/>
    <!-- Signature line -->
    <line x1="18" y1="52" x2="50" y2="52" stroke="#875A7B" stroke-width="1.5"/>
    <!-- Signature scribble -->
    <path d="M22 48 Q26 42, 30 48 T38 46 T46 48" stroke="#333" stroke-width="2" fill="none" stroke-linecap="round"/>
    <!-- Pen -->
    <g transform="translate(45, 25) rotate(45)">
      <rect x="0" y="0" width="6" height="35" rx="1" fill="#5c3d52"/>
      <polygon points="3,35 0,45 6,45" fill="#333"/>
      <rect x="0" y="0" width="6" height="8" rx="1" fill="#7d5374"/>
    </g>
  </g>
</svg>
