<?xml version="1.0" encoding="UTF-8"?>
<svg xmlns="http://www.w3.org/2000/svg" viewBox="0 0 100 100">
  <defs>
    <linearGradient id="fsmGrad" x1="0%" y1="0%" x2="100%" y2="100%">
      <stop offset="0%" style="stop-color:#714B67;stop-opacity:1" />
      <stop offset="100%" style="stop-color:#5a3d54;stop-opacity:1" />
    </linearGradient>
  </defs>
  <!-- Background -->
  <rect width="100" height="100" rx="15" ry="15" fill="url(#fsmGrad)"/>
  <!-- Wrench icon -->
  <g fill="white" transform="translate(20, 20) scale(0.6)">
    <!-- Map marker with wrench -->
    <path d="M50 10c-16.5 0-30 13.5-30 30 0 22.5 30 50 30 50s30-27.5 30-50c0-16.5-13.5-30-30-30z"
          fill="white" opacity="0.9"/>
    <!-- Wrench inside marker -->
    <path d="M60 30c-3.3-3.3-8-4.4-12.2-3.3l-7.8 7.8 10 10 7.8-7.8c1.1 4.2 0 8.9-3.3 12.2-3.7 3.7-9.1 4.4-13.5 2.2l-12.2 12.2c-1.1 1.1-2.8 1.1-3.9 0l-3.3-3.3c-1.1-1.1-1.1-2.8 0-3.9l12.2-12.2c-2.2-4.4-1.5-9.8 2.2-13.5 3.3-3.3 8-4.4 12.2-3.3l-7.8 7.8 3.3 3.3 3.3 3.3 7.8-7.8c1.1 4.2 0 8.9-3.3 12.2-0.6 0.6-1.1 1.1-1.7 1.5"
          fill="#714B67" transform="translate(30, 22) scale(0.5)"/>
  </g>
  <!-- Checkmark badge -->
  <circle cx="75" cy="75" r="15" fill="#28a745"/>
  <path d="M68 75l4 4 8-8" stroke="white" stroke-width="3" fill="none" stroke-linecap="round" stroke-linejoin="round"/>
</svg>
